<svg xmlns="http://www.w3.org/2000/svg" viewBox="0 0 40 40" fill="currentColor">
  <path
    d="M28.036 8.889V5a5.106 5.106 0 0 0-1.416-3.532A4.747 4.747 0 0 0 23.214 0h-6.428a4.747 4.747 0 0 0-3.406 1.468A5.106 5.106 0 0 0 11.964 5v3.889H5V35a5.107 5.107 0 0 0 1.415 3.532A4.747 4.747 0 0 0 9.821 40H30.18a4.747 4.747 0 0 0 3.406-1.468A5.106 5.106 0 0 0 35 35V8.889h-6.964ZM15.179 5c0-.442.169-.866.47-1.179.302-.312.71-.488 1.137-.488h6.428c.427 0 .835.176 1.137.488.301.313.47.737.47 1.179v3.889H15.18V5Zm16.607 30c0 .442-.17.866-.471 1.178-.301.313-.71.489-1.136.489H9.82c-.426 0-.835-.176-1.136-.489A1.698 1.698 0 0 1 8.215 35V12.222h3.75v4.445h3.214v-4.445h9.642v4.445h3.215v-4.445h3.75V35Z" />
</svg>